# xmcd
# 
# Track frame offsets:
#     150
#     9877
#     19631
#     49810
#     72752
#     90654
#     110076
#     120923
#     133775
#     148062
#     168811
#     189298
#     203610
#     213465
#     229061
#     248718
#     267421
#     285695
#     310826
#     330352
# 
# Disc length: 4679
# 
# Revision: 2
# Processed by: cddbd v1.5.2PL0 Copyright (c) Steve Scherf et al.
# Submitted via: fre:ac v1.0.17
# 
DISCID=10124514
DTITLE=Chet Baker - Collection 2 artistes en OR – cd4
DYEAR=2009
DGENRE=Jazz
TTITLE0=Embraceable
TTITLE1=Come rain or come shine
TTITLE2=Minor yours
TTITLE3=The route
TTITLE4=Sonny boy
TTITLE5=Little girl
TTITLE6=The night we called it a day
TTITLE7=While my lady sleeps
TTITLE8=Trav'lin' light
TTITLE9=Little girl blue  (instrumental version)
TTITLE10=Little girl blue  (vocal version)
TTITLE11=On green dolphin street
TTITLE12=They all laughed
TTITLE13=Kulie is her name
TTITLE14=If i should lose you
TTITLE15=I can't give you anything but love
TTITLE16=Tenderly
TTITLE17=Tynan tyme
TTITLE18=The great lie
TTITLE19=Younger than springtime
EXTD=
EXTT0=
EXTT1=
EXTT2=
EXTT3=
EXTT4=
EXTT5=
EXTT6=
EXTT7=
EXTT8=
EXTT9=
EXTT10=
EXTT11=
EXTT12=
EXTT13=
EXTT14=
EXTT15=
EXTT16=
EXTT17=
EXTT18=
EXTT19=
PLAYORDER=
